<svg xmlns="http://www.w3.org/2000/svg" xmlns:xlink="http://www.w3.org/1999/xlink" xmlns:fi="http://pattern.flaticon.com/" x="0" y="0" width="300" height="300" viewBox="0 0 210 210"><rect x="0px" y="0px" width="100%" height="100%" opacity="0" fill="#ffffff"/><defs><g transform="matrix(0.18008166551589966 0 0 0.18008166551589966 42.930599723011255 46.930599723011255)" id="L1_2"><path d="M270.365,442.023c-51.341,0-102.682-19.541-141.764-58.629l0,0  c-37.809-37.809-58.64-88.16-58.64-141.769s20.83-103.954,58.64-141.764C238.876-10.425,485.247-0.015,495.635,0.469  c8.604,0.413,15.489,7.293,15.892,15.897c0.5,10.431,10.899,256.743-99.387,367.028  C373.059,422.476,321.718,442.023,270.365,442.023z" fill="#88cc2a"/><g><path d="M270.365,442.023c51.352,0,102.693-19.547,141.775-58.629   c110.286-110.286,99.887-356.596,99.387-367.028c-0.202-4.304-2.026-8.176-4.874-11.023L128.602,383.394   C167.684,422.482,219.025,442.023,270.365,442.023z" fill="#7fb335"/><path d="M294.002,234.706c-9.224,0-16.708-7.478-16.708-16.708V99.855c0-9.229,7.484-16.708,16.708-16.708   c9.224,0,16.708,7.478,16.708,16.708v118.144C310.71,227.228,303.226,234.706,294.002,234.706z" fill="#7fb335"/></g><path d="M412.141,234.706H294.002c-9.224,0-16.708-7.478-16.708-16.708c0-9.229,7.484-16.708,16.708-16.708  h118.139c9.224,0,16.708,7.478,16.708,16.708C428.849,227.228,421.365,234.706,412.141,234.706z" fill="#73a62a"/><path d="M187.676,341.032c-9.224,0-16.708-7.478-16.708-16.708V206.181c0-9.229,7.484-16.708,16.708-16.708  c9.224,0,16.708,7.478,16.708,16.708v118.144C204.384,333.554,196.9,341.032,187.676,341.032z" fill="#7fb335"/><path d="M305.816,341.032H187.676c-9.224,0-16.708-7.478-16.708-16.708c0-9.229,7.484-16.708,16.708-16.708  h118.138c9.224,0,16.708,7.478,16.708,16.708C322.522,333.554,315.039,341.032,305.816,341.032z" fill="#73a62a"/><path d="M16.707,511.996c-4.275,0-8.55-1.632-11.812-4.895c-6.526-6.52-6.526-17.104,0-23.626L388.516,99.861  c6.526-6.526,17.1-6.526,23.626,0c6.526,6.52,6.526,17.104,0,23.626L28.519,507.102C25.257,510.365,20.982,511.996,16.707,511.996z" fill="#7fb335"/><path d="M16.707,511.996c4.275,0,8.55-1.632,11.812-4.895l383.622-383.615c6.526-6.52,6.526-17.104,0-23.626  c0-0.001-0.002-0.001-0.002-0.001L4.894,507.102C8.157,510.365,12.432,511.996,16.707,511.996z" fill="#73a62a"/></g><path d="M447.05,428l-109.6-109.6c29.4-33.8,47.2-77.9,47.2-126.1C384.65,86.2,298.35,0,192.35,0C86.25,0,0.05,86.3,0.05,192.3   s86.3,192.3,192.3,192.3c48.2,0,92.3-17.8,126.1-47.2L428.05,447c2.6,2.6,6.1,4,9.5,4s6.9-1.3,9.5-4   C452.25,441.8,452.25,433.2,447.05,428z M26.95,192.3c0-91.2,74.2-165.3,165.3-165.3c91.2,0,165.3,74.2,165.3,165.3   s-74.1,165.4-165.3,165.4C101.15,357.7,26.95,283.5,26.95,192.3z" transform="matrix(0.4079687297344208 0 0 0.4079687297344208 9.99618727098374 13.003053076565266)" id="L1_3" fill="#588f27"/></defs><g fi:class="KUsePattern"><pattern id="pattern_L1_2" width="350" height="350" patternUnits="userSpaceOnUse"><use xlink:href="#L1_2" x="-350" y="-350"/><use xlink:href="#L1_2" x="0" y="-350"/><use xlink:href="#L1_2" x="350" y="-350"/><use xlink:href="#L1_2" x="-350" y="0"/><use xlink:href="#L1_2" x="0" y="0"/><use xlink:href="#L1_2" x="350" y="0"/><use xlink:href="#L1_2" x="-350" y="350"/><use xlink:href="#L1_2" x="0" y="350"/><use xlink:href="#L1_2" x="350" y="350"/></pattern><rect x="0" y="0" width="100%" height="100%" fill="url(#pattern_L1_2)"/></g><g fi:class="KUsePattern"><pattern id="pattern_L1_3" width="350" height="350" patternUnits="userSpaceOnUse"><use xlink:href="#L1_3" x="-350" y="-350"/><use xlink:href="#L1_3" x="0" y="-350"/><use xlink:href="#L1_3" x="350" y="-350"/><use xlink:href="#L1_3" x="-350" y="0"/><use xlink:href="#L1_3" x="0" y="0"/><use xlink:href="#L1_3" x="350" y="0"/><use xlink:href="#L1_3" x="-350" y="350"/><use xlink:href="#L1_3" x="0" y="350"/><use xlink:href="#L1_3" x="350" y="350"/></pattern><rect x="0" y="0" width="100%" height="100%" fill="url(#pattern_L1_3)"/></g></svg>